/* XPM */
static char *_871744669394ce1b7fc076c21be55c1TKN9QNyFBHd3dCQE[] = {
/* columns rows colors chars-per-pixel */
"16 16 3 1 ",
"  c black",
". c #3A3333",
"X c #CABCBC",
/* pixels */
"                ",
" ..... XX ..... ",
" ..... XX ..... ",
" ..... XX ..... ",
" ..... XX ..... ",
" ..... XX   ... ",
" .....   XX ... ",
" ....... XX ... ",
" ....... XX ... ",
" .....   XX ... ",
" ..... XX   ... ",
" ..... XX ..... ",
" ..... XX ..... ",
" ..... XX ..... ",
" ..... XX ..... ",
"                "
};
