/* XPM */
static char *fc520a36b2aa46a7e3dfbb595f5235dazJpMDMIig39qh1oP[] = {
/* columns rows colors chars-per-pixel */
"16 16 4 1 ",
"  c None",
". c black",
"X c #423C3C",
"o c red",
/* pixels */
"                ",
"      ....      ",
"      .XX.      ",
"     .oooo.     ",
"     .XXXX.     ",
"     .XXXX.     ",
"      .XX.      ",
"      ....      ",
"    ........    ",
"   . ...... .   ",
"   . ...... .   ",
"   . ...... .   ",
"     ......     ",
"     .    .     ",
"     .    .     ",
"     .    .     "
};
