/* XPM */
static char *b500613a857e4212fc0f5d099a652b47wfl4E8OJa12KFcwf[] = {
/* columns rows colors chars-per-pixel */
"16 16 2 1 ",
"  c black",
". c gray39",
/* pixels */
"                ",
" .. ...... .... ",
" .. ...... .... ",
"                ",
" ..... ...... . ",
" ..... ...... . ",
"                ",
" ..... .... ... ",
" ..... .... ... ",
"                ",
" ... ..... .... ",
" ... ..... .... ",
"                ",
" . ........ ... ",
" . ........ ... ",
"                "
};
